<?xml version="1.0" encoding="iso-8859-1"?>
<!-- Generator: Adobe Illustrator 19.0.0, SVG Export Plug-In . SVG Version: 6.00 Build 0)  -->
<svg xmlns="http://www.w3.org/2000/svg" xmlns:xlink="http://www.w3.org/1999/xlink" version="1.1" id="Layer_1" x="0px" y="0px" viewBox="0 0 496 496" style="enable-background:new 0 0 496 496;" xml:space="preserve">
<g>
	<g>
		<path d="M451.68,387.128c12.4-10.28,20.32-25.8,20.32-43.128c0-28.312-21.144-51.736-48.472-55.432    c-2.928-25.128-20.448-45.856-43.856-53.44C392.08,224.848,400,209.336,400,192c0-30.88-25.12-56-56-56    c-6.84,0-13.368,1.296-19.432,3.552c-6.48-19.424-21.76-34.288-40.888-40.424C296.08,88.848,304,73.328,304,56    c0-30.88-25.12-56-56-56s-56,25.12-56,56c0,17.328,7.92,32.848,20.32,43.128c-19.128,6.136-34.4,21-40.888,40.424    C165.368,137.296,158.84,136,152,136c-30.88,0-56,25.12-56,56c0,17.336,7.92,32.848,20.32,43.128    c-23.408,7.584-40.928,28.312-43.856,53.44C45.144,292.264,24,315.688,24,344c0,17.328,7.92,32.848,20.32,43.128    C18.64,395.448,0,419.576,0,448v48h160v-48c0-28.424-18.64-52.552-44.32-60.872c12.4-10.28,20.32-25.8,20.32-43.128h56    c0,17.328,7.92,32.848,20.32,43.128C186.64,395.448,168,419.576,168,448v48h160v-48c0-28.424-18.64-52.552-44.32-60.872    c12.4-10.28,20.32-25.8,20.32-43.128h56c0,17.328,7.92,32.848,20.32,43.128C354.64,395.448,336,419.576,336,448v48h160v-48    C496,419.576,477.36,395.448,451.68,387.128z M344,152c22.056,0,40,17.944,40,40c0,22.056-17.944,40-40,40    c-22.056,0-40-17.944-40-40C304,169.944,321.944,152,344,152z M355.872,248L344,275.688L332.128,248H355.872z M308.336,235.128    c-23.984,7.776-41.784,29.336-44.04,55.304C259.128,288.864,253.664,288,248,288s-11.128,0.864-16.28,2.432    c-2.256-25.968-20.056-47.528-44.04-55.304c8.424-6.984,14.752-16.384,17.968-27.128h84.72    C293.576,218.744,299.904,228.144,308.336,235.128z M208,56c0-22.056,17.944-40,40-40c22.056,0,40,17.944,40,40    c0,22.056-17.944,40-40,40C225.944,96,208,78.056,208,56z M259.872,112L248,139.688L236.128,112H259.872z M219.504,113.824    L248,180.312l28.496-66.488c16.296,4.376,29.144,17.008,33.608,33.704C296.696,157.768,288,173.872,288,192h-80    c0-18.128-8.696-34.232-22.104-44.472C190.368,130.832,203.216,118.2,219.504,113.824z M112,192c0-22.056,17.944-40,40-40    c22.056,0,40,17.944,40,40c0,22.056-17.944,40-40,40C129.944,232,112,214.056,112,192z M163.872,248L152,275.688L140.128,248    H163.872z M144,448v32H16v-32c0-22.128,15.064-40.752,35.464-46.28L80,468.312l28.536-66.592C128.936,407.248,144,425.872,144,448    z M68.128,400h23.744L80,427.688L68.128,400z M80,384c-22.056,0-40-17.944-40-40c0-22.056,17.944-40,40-40    c22.056,0,40,17.944,40,40C120,366.056,102.056,384,80,384z M194.36,328h-60.72c-6.104-20.424-23.568-35.936-45.032-39.264    c2.88-18.856,16.736-34.104,34.848-39.016L152,316.312l28.536-66.592C200.936,255.248,216,273.872,216,296v2.112    C205.76,305.28,198.016,315.76,194.36,328z M312,448v32H184v-32c0-22.128,15.064-40.752,35.464-46.28L248,468.312l28.536-66.592    C296.936,407.248,312,425.872,312,448z M236.128,400h23.744L248,427.688L236.128,400z M248,384c-22.056,0-40-17.944-40-40    c0-22.056,17.944-40,40-40c22.056,0,40,17.944,40,40C288,366.056,270.056,384,248,384z M362.352,328H301.64    c-3.656-12.248-11.4-22.728-21.64-29.888V296c0-22.128,15.064-40.752,35.464-46.28L344,316.312l28.536-66.592    c18.112,4.912,31.968,20.16,34.848,39.016C385.92,292.072,368.456,307.584,362.352,328z M376,344c0-22.056,17.944-40,40-40    c22.056,0,40,17.944,40,40c0,22.056-17.944,40-40,40C393.944,384,376,366.056,376,344z M427.872,400L416,427.688L404.128,400    H427.872z M480,480H352v-32c0-22.128,15.064-40.752,35.464-46.28L416,468.312l28.536-66.592C464.936,407.248,480,425.872,480,448    V480z"/>
	</g>
</g>
<g>
</g>
<g>
</g>
<g>
</g>
<g>
</g>
<g>
</g>
<g>
</g>
<g>
</g>
<g>
</g>
<g>
</g>
<g>
</g>
<g>
</g>
<g>
</g>
<g>
</g>
<g>
</g>
<g>
</g>
</svg>
