<svg height="480pt" viewBox="-32 0 480 480.25448" width="480pt" xmlns="http://www.w3.org/2000/svg"><path d="m320.128906 144.253906c0-61.855468-50.144531-112-112-112-61.859375 0-112 50.144532-112 112 0 61.855469 50.140625 112 112 112 61.828125-.066406 111.933594-50.171875 112-112zm-208 0c0-53.019531 42.980469-96 96-96 53.019532 0 96 42.980469 96 96 0 53.019532-42.980468 96-96 96-52.996094-.058594-95.945312-43.003906-96-96zm0 0"/><path d="m.128906 96.253906c0 4.417969 3.578125 8 8 8h32c4.417969 0 8-3.582031 8-8 0-4.417968-3.582031-8-8-8h-32c-4.421875 0-8 3.582032-8 8zm0 0"/><path d="m408.128906 88.253906h-32c-4.421875 0-8 3.582032-8 8 0 4.417969 3.578125 8 8 8h32c4.417969 0 8-3.582031 8-8 0-4.417968-3.582031-8-8-8zm0 0"/><path d="m40.128906 72.253906c3.234375 0 6.148438-1.949218 7.386719-4.9375 1.238281-2.988281.554687-6.429687-1.730469-8.71875l-16-16c-2.011718-2.078125-4.984375-2.914062-7.78125-2.179687-2.796875.730469-4.980468 2.914062-5.714844 5.710937-.730468 2.796875.101563 5.773438 2.183594 7.78125l16 16c1.5 1.5 3.53125 2.34375 5.65625 2.34375zm0 0"/><path d="m376.128906 72.253906c2.121094 0 4.15625-.84375 5.65625-2.34375l16-16c2.078125-2.007812 2.910156-4.984375 2.179688-7.78125-.730469-2.796875-2.917969-4.980468-5.714844-5.710937-2.796875-.734375-5.769531.101562-7.777344 2.179687l-16 16c-2.289062 2.289063-2.972656 5.730469-1.734375 8.71875 1.238281 2.988282 4.152344 4.9375 7.390625 4.9375zm0 0"/><path d="m386.472656 149.910156c3.136719 3.03125 8.128906 2.988282 11.214844-.097656s3.128906-8.074219.097656-11.214844l-16-16c-3.140625-3.03125-8.128906-2.988281-11.214844.097656-3.085937 3.085938-3.128906 8.074219-.097656 11.214844zm0 0"/><path d="m34.472656 122.597656-16 16c-2.082031 2.007813-2.914062 4.984375-2.183594 7.78125.734376 2.796875 2.917969 4.980469 5.714844 5.714844 2.796875.730469 5.769532-.105469 7.78125-2.183594l16-16c3.03125-3.140625 2.988282-8.128906-.097656-11.214844-3.085938-3.085937-8.078125-3.128906-11.214844-.097656zm0 0"/><path d="m244.296875 207.269531c2.683594 1.464844 5.96875 1.269531 8.460937-.503906 2.492188-1.769531 3.753907-4.808594 3.257813-7.824219l-7.320313-43.941406 29.089844-29.089844c2.113282-2.117187 2.871094-5.242187 1.957032-8.09375-.914063-2.851562-3.339844-4.953125-6.296876-5.449218l-43.558593-7.265626-14.328125-35.816406c-1.210938-3.042968-4.15625-5.039062-7.429688-5.039062-3.277344 0-6.222656 1.996094-7.433594 5.039062l-14.328124 35.816406-43.558594 7.265626c-2.953125.496093-5.382813 2.597656-6.296875 5.449218-.914063 2.851563-.15625 5.976563 1.960937 8.09375l29.085938 29.089844-7.320313 43.941406c-.496093 3.015625.769531 6.054688 3.261719 7.824219 2.492188 1.773437 5.773438 1.96875 8.460938.503906l36.167968-19.765625zm-65.601563-21.917969 5.296876-31.785156c.421874-2.546875-.40625-5.140625-2.234376-6.96875l-21.007812-21.007812 32.671875-5.449219c2.757813-.457031 5.074219-2.324219 6.113281-4.917969l8.59375-21.433594 8.566406 21.433594c1.039063 2.59375 3.355469 4.460938 6.113282 4.917969l32.671875 5.449219-21.007813 21.007812c-1.828125 1.828125-2.65625 4.421875-2.234375 6.96875l5.296875 31.785156-25.601562-13.984374c-2.386719-1.304688-5.273438-1.304688-7.664063 0zm0 0"/><path d="m72.128906 232.253906c-13.257812 0-24-10.746094-24-24 0-4.417968-3.582031-8-8-8-4.421875 0-8 3.582032-8 8 0 13.253906-10.746094 24-24 24-4.421875 0-8 3.582032-8 8 0 4.417969 3.578125 8 8 8 13.253906 0 24 10.746094 24 24 0 4.417969 3.578125 8 8 8 4.417969 0 8-3.582031 8-8 0-13.253906 10.742188-24 24-24 4.417969 0 8-3.582031 8-8 0-4.417968-3.582031-8-8-8zm-32 16.25c-2.332031-3.140625-5.109375-5.917968-8.25-8.25 3.140625-2.328125 5.917969-5.109375 8.25-8.246094 2.328125 3.136719 5.109375 5.917969 8.246094 8.246094-3.136719 2.332032-5.917969 5.109375-8.246094 8.25zm0 0"/><path d="m408.128906 232.253906c-13.257812 0-24-10.746094-24-24 0-4.417968-3.582031-8-8-8-4.421875 0-8 3.582032-8 8 0 13.253906-10.746094 24-24 24-4.421875 0-8 3.582032-8 8 0 4.417969 3.578125 8 8 8 13.253906 0 24 10.746094 24 24 0 4.417969 3.578125 8 8 8 4.417969 0 8-3.582031 8-8 0-13.253906 10.742188-24 24-24 4.417969 0 8-3.582031 8-8 0-4.417968-3.582031-8-8-8zm-32 16.25c-2.332031-3.140625-5.109375-5.917968-8.25-8.25 3.140625-2.328125 5.917969-5.109375 8.25-8.246094 2.328125 3.136719 5.109375 5.917969 8.246094 8.246094-3.136719 2.332032-5.917969 5.109375-8.246094 8.25zm0 0"/><path d="m283.414062 478.71875c1.367188 1 3.019532 1.539062 4.714844 1.535156 4.417969 0 8-3.582031 8-8v-214.269531c48.765625-37.652344 68.179688-102.160156 48.289063-160.472656-19.894531-58.3125-74.679688-97.511719-136.289063-97.511719-61.613281 0-116.398437 39.199219-136.289062 97.511719-19.894532 58.3125-.480469 122.820312 48.289062 160.472656v214.269531c0 3.011719 1.6875 5.765625 4.371094 7.128906 2.683594 1.367188 5.90625 1.109376 8.339844-.664062l73.359375-53.535156c.183593-.128906 1.128906-.800782 1.320312-.914063.375-.222656.839844-.222656 1.214844 0 .191406.105469 1.136719.800781 1.320313.914063zm-81.863281-69.390625c-1.871093.773437-3.601562 1.855469-5.121093 3.199219l-11.636719 8.496094-.664063.480468v-78.472656c3.457032-1.988281 6.648438-4.40625 9.496094-7.199219l6.109375-6.097656c3.363281-3.472656 6.191406-7.425781 8.394531-11.726563 2.195313 4.3125 5.027344 8.273438 8.398438 11.75l6.105468 6.097657c2.84375 2.792969 6.035157 5.210937 9.496094 7.199219v78.449218l-.664062-.480468-11.640625-8.496094c-1.519531-1.34375-3.25-2.425782-5.121094-3.199219-4.207031-1.769531-8.945313-1.769531-13.152344 0zm32.390625-84.800781-6.101562-6.105469c-7.117188-8.492187-11.234375-19.097656-11.710938-30.167969 11.074219.476563 21.683594 4.59375 30.183594 11.710938l6.101562 6.105468c7.121094 8.496094 11.238282 19.109376 11.714844 30.183594-11.078125-.472656-21.6875-4.589844-30.1875-11.710937zm-33.8125-36.273438c-.476562 11.078125-4.59375 21.6875-11.714844 30.183594l-6.101562 6.105469c-8.5 7.121093-19.109375 11.238281-30.183594 11.710937.472656-11.074218 4.589844-21.6875 11.710938-30.183594l6.101562-6.105468c8.5-7.117188 19.109375-11.234375 30.1875-11.710938zm80 168.257813-32-23.351563v-83.464844c5.199219 1.53125 10.578125 2.394532 16 2.558594h8c4.417969 0 8-3.582031 8-8zm0-120.257813c-.464844-15.324218-6.265625-30.003906-16.402344-41.503906l-6.101562-6.09375c-2.542969-2.46875-5.359375-4.632812-8.394531-6.457031 10.792969-3.242188 21.164062-7.75 30.898437-13.433594zm-200-192c0-70.691406 57.304688-128 128-128 70.691406 0 128 57.308594 128 128s-57.308594 128-128 128c-70.660156-.082031-127.917968-57.339844-128-128zm86.894532 137.945313c-3.035157 1.824219-5.851563 3.988281-8.390626 6.457031l-6.113281 6.09375c-10.128906 11.503906-15.929687 26.183594-16.390625 41.503906v-67.488281c9.730469 5.683594 20.101563 10.191406 30.894532 13.433594zm-30.894532 62.054687c0 4.417969 3.578125 8 8 8h8c5.417969-.164062 10.796875-1.027344 16-2.558594v83.464844l-32 23.351563zm0 0"/></svg>