<svg id="Icon_Set" data-name="Icon Set" xmlns="http://www.w3.org/2000/svg" viewBox="0 0 512 512"><defs><style>.cls-1{fill:#f0c48a;}.cls-2{fill:#d3e6f8;}.cls-3{fill:#fd919e;}.cls-4{fill:#4c4372;}</style></defs><title>Continuous Updating</title><g id="Continuous_Updating" data-name="Continuous Updating"><circle class="cls-1" cx="256" cy="256" r="207"/><polygon class="cls-2" points="348.83 309.37 348.83 202.18 256 148.59 163.17 202.18 163.17 309.37 256 362.96 348.83 309.37"/><circle class="cls-3" cx="256" cy="255.78" r="35.23"/><path class="cls-4" d="M256,368.83a5.91,5.91,0,0,1-2.93-.79l-92.83-53.59a5.88,5.88,0,0,1-2.93-5.08V202.18a5.85,5.85,0,0,1,2.93-5.07l92.83-53.6a5.89,5.89,0,0,1,5.86,0l92.83,53.6a5.85,5.85,0,0,1,2.93,5.07V309.37a5.88,5.88,0,0,1-2.93,5.08L258.93,368A5.91,5.91,0,0,1,256,368.83ZM169,306l87,50.2L343,306V205.57l-87-50.21-87,50.21Zm179.79,3.38h0Z"/><path class="cls-4" d="M256,296.87a41.1,41.1,0,1,1,41.09-41.09A41.13,41.13,0,0,1,256,296.87Zm0-70.46a29.37,29.37,0,1,0,29.37,29.37A29.4,29.4,0,0,0,256,226.41Z"/><path class="cls-4" d="M256,422.91c-92.15,0-167.12-75-167.12-167.12a167.41,167.41,0,0,1,37.81-105.87c3.51-4.28,7.27-8.43,11.18-12.33a5.86,5.86,0,0,1,8.29,8.29c-3.64,3.64-7.14,7.5-10.4,11.47a155.68,155.68,0,0,0-35.15,98.44c0,85.69,69.71,155.39,155.39,155.39a5.87,5.87,0,0,1,0,11.73Z"/><path class="cls-4" d="M370.06,375.64a5.86,5.86,0,0,1-4.15-10,154.39,154.39,0,0,0,45.48-109.85c0-85.68-69.71-155.39-155.39-155.39a5.86,5.86,0,0,1,0-11.72c92.15,0,167.12,75,167.12,167.11a166,166,0,0,1-48.91,118.14A5.88,5.88,0,0,1,370.06,375.64Z"/><polygon class="cls-2" points="280.36 415.1 256 429.16 231.64 443.22 231.64 415.1 231.64 386.97 256 401.04 280.36 415.1"/><polygon class="cls-3" points="231.64 96.9 256 110.97 280.36 125.03 280.36 96.9 280.36 68.78 256 82.84 231.64 96.9"/><path class="cls-4" d="M231.64,449.08a5.85,5.85,0,0,1-5.86-5.86V387a5.87,5.87,0,0,1,8.8-5.07L283.29,410a5.86,5.86,0,0,1,0,10.15L234.58,448.3A5.91,5.91,0,0,1,231.64,449.08Zm5.87-51.95v35.94l31.12-18Z"/><path class="cls-4" d="M280.36,130.89a5.82,5.82,0,0,1-2.94-.79L228.71,102a5.86,5.86,0,0,1,0-10.15L277.42,63.7a5.87,5.87,0,0,1,8.8,5.08V125a5.87,5.87,0,0,1-5.86,5.86Zm-37-34,31.12,18V78.93Z"/><path class="cls-4" d="M256.28,477.31A219.85,219.85,0,0,1,99.79,412.49a5.86,5.86,0,0,1,8.29-8.29A209.59,209.59,0,0,0,465.86,256a5.86,5.86,0,1,1,11.72,0,221.31,221.31,0,0,1-221.3,221.31Z"/><path class="cls-4" d="M40.83,261.86A5.86,5.86,0,0,1,35,256,221.3,221.3,0,0,1,412.76,99.51a5.86,5.86,0,1,1-8.29,8.29A209.59,209.59,0,0,0,46.69,256,5.86,5.86,0,0,1,40.83,261.86Z"/><polygon class="cls-2" points="43.44 288.54 24.65 256 5.86 223.46 43.44 223.46 81.01 223.46 62.23 256 43.44 288.54"/><polygon class="cls-3" points="468.56 223.46 449.77 256 430.99 288.54 468.56 288.54 506.14 288.54 487.35 256 468.56 223.46"/><path class="cls-4" d="M43.44,294.4a5.85,5.85,0,0,1-5.08-2.93L.79,226.39a5.86,5.86,0,0,1,5.07-8.79H81a5.86,5.86,0,0,1,5.08,8.79L48.51,291.47A5.83,5.83,0,0,1,43.44,294.4ZM16,229.32l27.42,47.5,27.42-47.5Z"/><path class="cls-4" d="M506.14,294.4H431a5.86,5.86,0,0,1-5.08-8.79l37.58-65.08a5.86,5.86,0,0,1,10.15,0l37.57,65.08a5.86,5.86,0,0,1-5.07,8.79Zm-65-11.72H496l-27.42-47.5Z"/></g></svg>